grf
version=1
nRows=16
nColumns=73
inDegrees=yes
endheader
time	ground_force_1_vx	ground_force_1_vy	ground_force_1_vz	ground_force_1_px	ground_force_1_py	ground_force_1_pz	ground_moment_1_mx	ground_moment_1_my	ground_moment_1_mz	ground_force_2_vx	ground_force_2_vy	ground_force_2_vz	ground_force_2_px	ground_force_2_py	ground_force_2_pz	ground_moment_2_mx	ground_moment_2_my	ground_moment_2_mz	ground_force_3_vx	ground_force_3_vy	ground_force_3_vz	ground_force_3_px	ground_force_3_py	ground_force_3_pz	ground_moment_3_mx	ground_moment_3_my	ground_moment_3_mz	ground_force_4_vx	ground_force_4_vy	ground_force_4_vz	ground_force_4_px	ground_force_4_py	ground_force_4_pz	ground_moment_4_mx	ground_moment_4_my	ground_moment_4_mz	ground_force_5_vx	ground_force_5_vy	ground_force_5_vz	ground_force_5_px	ground_force_5_py	ground_force_5_pz	ground_moment_5_mx	ground_moment_5_my	ground_moment_5_mz	ground_force_6_vx	ground_force_6_vy	ground_force_6_vz	ground_force_6_px	ground_force_6_py	ground_force_6_pz	ground_moment_6_mx	ground_moment_6_my	ground_moment_6_mz	ground_force_7_vx	ground_force_7_vy	ground_force_7_vz	ground_force_7_px	ground_force_7_py	ground_force_7_pz	ground_moment_7_mx	ground_moment_7_my	ground_moment_7_mz	ground_force_8_vx	ground_force_8_vy	ground_force_8_vz	ground_force_8_px	ground_force_8_py	ground_force_8_pz	ground_moment_8_mx	ground_moment_8_my	ground_moment_8_mz
0.000000	10.532456	462.085611	13.097252	0.387630	0.000000	0.306174	0.000000	-4.204766	0.000000	0.000000	0.000000	0.000000	0.000000	0.000000	0.000000	0.000000	0.000000	0.000000	1.930215	300.266447	17.969474	0.429413	0.000000	0.307473	0.000000	-2.083933	-0.000000	8.583984	161.811398	-4.864120	0.314709	0.000000	0.308170	0.000000	-1.123016	-0.000000	3.094201	304.422823	14.371052	0.433854	0.000000	0.304276	0.000000	1.046609	-0.000000	4.003765	154.829979	0.216700	0.324152	0.000000	0.314804	0.000000	-0.375577	0.000000	0.000000	0.000000	0.000000	0.000000	0.000000	0.000000	0.000000	0.000000	0.000000	0.000000	0.000000	0.000000	0.000000	0.000000	0.000000	0.000000	0.000000	0.000000
0.001000	10.452757	462.305619	13.872699	0.387323	0.000000	0.306413	0.000000	-4.023012	0.000000	0.000000	0.000000	0.000000	0.000000	0.000000	0.000000	0.000000	0.000000	0.000000	1.802539	300.297957	18.350616	0.428861	0.000000	0.307748	0.000000	-2.041726	-0.000000	8.633448	162.000232	-4.470246	0.314919	0.000000	0.308334	0.000000	-1.002030	0.000000	2.783376	303.944470	15.009890	0.432946	0.000000	0.304723	0.000000	0.850915	-0.000000	4.562926	155.673579	0.135354	0.323970	0.000000	0.314632	0.000000	-0.300677	0.000000	0.000000	0.000000	0.000000	0.000000	0.000000	0.000000	0.000000	0.000000	0.000000	0.000000	0.000000	0.000000	0.000000	0.000000	0.000000	0.000000	0.000000	0.000000
0.002000	10.386364	462.527192	14.634802	0.386997	0.000000	0.306654	0.000000	-3.836949	0.000000	0.000000	0.000000	0.000000	0.000000	0.000000	0.000000	0.000000	0.000000	0.000000	1.684041	300.335326	18.727871	0.428301	0.000000	0.308030	0.000000	-1.995660	-0.000000	8.687017	162.184760	-4.085862	0.315085	0.000000	0.308492	0.000000	-0.879750	0.000000	2.486646	303.475905	15.642763	0.432030	0.000000	0.305157	0.000000	0.655809	-0.000000	5.104182	156.503412	0.056703	0.323743	0.000000	0.314456	0.000000	-0.227683	0.000000	0.000000	0.000000	0.000000	0.000000	0.000000	0.000000	0.000000	0.000000	0.000000	0.000000	0.000000	0.000000	0.000000	0.000000	0.000000	0.000000	0.000000	0.000000
0.003000	10.333925	462.748447	15.373512	0.386649	0.000000	0.306893	0.000000	-3.650428	0.000000	0.000000	0.000000	0.000000	0.000000	0.000000	0.000000	0.000000	0.000000	0.000000	1.577676	300.378785	19.098311	0.427736	0.000000	0.308315	0.000000	-1.946809	-0.000000	8.742364	162.362861	-3.718070	0.315196	0.000000	0.308641	0.000000	-0.758444	0.000000	2.208411	303.021892	16.263685	0.431113	0.000000	0.305577	0.000000	0.464407	-0.000000	5.622320	157.310660	-0.019186	0.323469	0.000000	0.314278	0.000000	-0.156928	0.000000	0.000000	0.000000	0.000000	0.000000	0.000000	0.000000	0.000000	0.000000	0.000000	0.000000	0.000000	0.000000	0.000000	0.000000	0.000000	0.000000	0.000000	0.000000
0.004000	10.295741	462.967521	16.079501	0.386278	0.000000	0.307127	0.000000	-3.466764	0.000000	0.000000	0.000000	0.000000	0.000000	0.000000	0.000000	0.000000	0.000000	0.000000	1.485038	300.428674	19.459137	0.427168	0.000000	0.308600	0.000000	-1.896066	-0.000000	8.798180	162.532320	-3.373385	0.315245	0.000000	0.308773	0.000000	-0.640097	0.000000	1.952716	302.586608	16.867716	0.430198	0.000000	0.305978	0.000000	0.279221	-0.000000	6.112734	158.087489	-0.093365	0.323143	0.000000	0.314100	0.000000	-0.088993	0.000000	0.000000	0.000000	0.000000	0.000000	0.000000	0.000000	0.000000	0.000000	0.000000	0.000000	0.000000	0.000000	0.000000	0.000000	0.000000	0.000000	0.000000	0.000000
0.005000	10.271852	463.182419	16.744540	0.385886	0.000000	0.307352	0.000000	-3.288444	0.000000	0.000000	0.000000	0.000000	0.000000	0.000000	0.000000	0.000000	0.000000	0.000000	1.406304	300.485014	19.807892	0.426598	0.000000	0.308882	0.000000	-1.844017	-0.000000	8.854312	162.691117	-3.057571	0.315228	0.000000	0.308886	0.000000	-0.526258	0.000000	1.722672	302.173424	17.450622	0.429289	0.000000	0.306358	0.000000	0.102131	-0.000000	6.572014	158.827148	-0.167819	0.322763	0.000000	0.313921	0.000000	-0.024615	0.000000	0.000000	0.000000	0.000000	0.000000	0.000000	0.000000	0.000000	0.000000	0.000000	0.000000	0.000000	0.000000	0.000000	0.000000	0.000000	0.000000	0.000000	0.000000
0.006000	10.261877	463.390810	17.361685	0.385471	0.000000	0.307567	0.000000	-3.117117	0.000000	0.000000	0.000000	0.000000	0.000000	0.000000	0.000000	0.000000	0.000000	0.000000	1.340283	300.547152	20.142660	0.426027	0.000000	0.309161	0.000000	-1.791006	-0.000000	8.911563	162.837569	-2.775647	0.315145	0.000000	0.308976	0.000000	-0.417954	0.000000	1.519928	301.785120	18.008696	0.428391	0.000000	0.306716	0.000000	-0.065421	-0.000000	6.998310	159.523936	-0.245052	0.322329	0.000000	0.313739	0.000000	0.035502	0.000000	0.000000	0.000000	0.000000	0.000000	0.000000	0.000000	0.000000	0.000000	0.000000	0.000000	0.000000	0.000000	0.000000	0.000000	0.000000	0.000000	0.000000	0.000000
0.007000	10.264657	463.589984	17.925354	0.385034	0.000000	0.307770	0.000000	-2.953987	0.000000	0.000000	0.000000	0.000000	0.000000	0.000000	0.000000	0.000000	0.000000	0.000000	1.284597	300.613759	20.462221	0.425453	0.000000	0.309436	0.000000	-1.737365	-0.000000	8.971145	162.970292	-2.531968	0.315001	0.000000	0.309040	0.000000	-0.315834	0.000000	1.344540	301.423957	18.538897	0.427506	0.000000	0.307050	0.000000	-0.222197	-0.000000	7.391437	160.173276	-0.327810	0.321843	0.000000	0.313554	0.000000	0.090864	0.000000	0.000000	0.000000	0.000000	0.000000	0.000000	0.000000	0.000000	0.000000	0.000000	0.000000	0.000000	0.000000	0.000000	0.000000	0.000000	0.000000	0.000000	0.000000
0.008000	10.278303	463.777008	18.431186	0.384574	0.000000	0.307959	0.000000	-2.800385	0.000000	0.000000	0.000000	0.000000	0.000000	0.000000	0.000000	0.000000	0.000000	0.000000	1.236252	300.682888	20.766074	0.424871	0.000000	0.309705	0.000000	-1.683610	-0.000000	9.034163	163.088297	-2.330392	0.314800	0.000000	0.309074	0.000000	-0.220520	0.000000	1.195039	301.091474	19.039056	0.426635	0.000000	0.307361	0.000000	-0.367093	-0.000000	7.752675	160.771798	-0.418985	0.321310	0.000000	0.313363	0.000000	0.141301	0.000000	0.000000	0.000000	0.000000	0.000000	0.000000	0.000000	0.000000	0.000000	0.000000	0.000000	0.000000	0.000000	0.000000	0.000000	0.000000	0.000000	0.000000	0.000000
0.009000	10.300678	463.949189	18.875810	0.384092	0.000000	0.308133	0.000000	-2.658006	0.000000	0.000000	0.000000	0.000000	0.000000	0.000000	0.000000	0.000000	0.000000	0.000000	1.192330	300.752196	21.054206	0.424279	0.000000	0.309968	0.000000	-1.630423	-0.000000	9.101395	163.191231	-2.174269	0.314549	0.000000	0.309076	0.000000	-0.132850	0.000000	1.068552	300.788410	19.507985	0.425780	0.000000	0.307653	0.000000	-0.499285	-0.000000	8.084219	161.317312	-0.521560	0.320737	0.000000	0.313166	0.000000	0.186884	0.000000	0.000000	0.000000	0.000000	0.000000	0.000000	0.000000	0.000000	0.000000	0.000000	0.000000	0.000000	0.000000	0.000000	0.000000	0.000000	0.000000	0.000000	0.000000
0.010000	10.329884	464.104776	19.257027	0.383588	0.000000	0.308290	0.000000	-2.528481	0.000000	0.000000	0.000000	0.000000	0.000000	0.000000	0.000000	0.000000	0.000000	0.000000	1.150416	300.819470	21.326701	0.423674	0.000000	0.310224	0.000000	-1.578433	-0.000000	9.173362	163.279553	-2.065886	0.314255	0.000000	0.309043	0.000000	-0.053721	0.000000	0.961271	300.514630	19.945477	0.424938	0.000000	0.307925	0.000000	-0.618436	-0.000000	8.388546	161.808879	-0.638629	0.320133	0.000000	0.312958	0.000000	0.227602	0.000000	0.000000	0.000000	0.000000	0.000000	0.000000	0.000000	0.000000	0.000000	0.000000	0.000000	0.000000	0.000000	0.000000	0.000000	0.000000	0.000000	0.000000	0.000000
0.011000	10.364541	464.243327	19.574411	0.383063	0.000000	0.308430	0.000000	-2.412627	0.000000	0.000000	0.000000	0.000000	0.000000	0.000000	0.000000	0.000000	0.000000	0.000000	1.108674	300.883006	21.583542	0.423055	0.000000	0.310472	0.000000	-1.527965	-0.000000	9.250519	163.354523	-2.005655	0.313923	0.000000	0.308976	0.000000	0.016353	-0.000000	0.869244	300.269013	20.352100	0.424109	0.000000	0.308180	0.000000	-0.724734	-0.000000	8.668037	162.246964	-0.773329	0.319505	0.000000	0.312738	0.000000	0.263104	0.000000	0.000000	0.000000	0.000000	0.000000	0.000000	0.000000	0.000000	0.000000	0.000000	0.000000	0.000000	0.000000	0.000000	0.000000	0.000000	0.000000	0.000000	0.000000
0.012000	10.403563	464.365541	19.829780	0.382519	0.000000	0.308553	0.000000	-2.310081	0.000000	0.000000	0.000000	0.000000	0.000000	0.000000	0.000000	0.000000	0.000000	0.000000	1.065532	300.941570	21.824726	0.422423	0.000000	0.310714	0.000000	-1.478939	-0.000000	9.333354	163.418072	-1.991760	0.313560	0.000000	0.308876	0.000000	0.077484	-0.000000	0.788973	300.049709	20.728836	0.423288	0.000000	0.308420	0.000000	-0.818698	-0.000000	8.924913	162.633479	-0.928296	0.318860	0.000000	0.312502	0.000000	0.292819	0.000000	0.000000	0.000000	0.000000	0.000000	0.000000	0.000000	0.000000	0.000000	0.000000	0.000000	0.000000	0.000000	0.000000	0.000000	0.000000	0.000000	0.000000	0.000000
0.013000	10.445585	464.472921	20.027162	0.381960	0.000000	0.308664	0.000000	-2.219552	0.000000	0.000000	0.000000	0.000000	0.000000	0.000000	0.000000	0.000000	0.000000	0.000000	1.019169	300.994142	22.050542	0.421779	0.000000	0.310949	0.000000	-1.430995	-0.000000	9.422332	163.472727	-2.020471	0.313173	0.000000	0.308748	0.000000	0.130305	-0.000000	0.717597	299.854652	21.076730	0.422476	0.000000	0.308645	0.000000	-0.900866	-0.000000	9.161389	162.971612	-1.104773	0.318206	0.000000	0.312249	0.000000	0.316395	0.000000	0.000000	0.000000	0.000000	0.000000	0.000000	0.000000	0.000000	0.000000	0.000000	0.000000	0.000000	0.000000	0.000000	0.000000	0.000000	0.000000	0.000000	0.000000
0.014000	10.488718	464.567552	20.172363	0.381388	0.000000	0.308764	0.000000	-2.139377	0.000000	0.000000	0.000000	0.000000	0.000000	0.000000	0.000000	0.000000	0.000000	0.000000	0.967227	301.039675	22.261777	0.421128	0.000000	0.311181	0.000000	-1.383734	-0.000000	9.517928	163.521621	-2.086771	0.312765	0.000000	0.308599	0.000000	0.175723	-0.000000	0.652699	299.681891	21.396806	0.421672	0.000000	0.308858	0.000000	-0.971552	-0.000000	9.379782	163.265470	-1.302104	0.317546	0.000000	0.311980	0.000000	0.334007	0.000000	0.000000	0.000000	0.000000	0.000000	0.000000	0.000000	0.000000	0.000000	0.000000	0.000000	0.000000	0.000000	0.000000	0.000000	0.000000	0.000000	0.000000	0.000000
0.015000	10.530775	464.651926	20.272288	0.380806	0.000000	0.308857	0.000000	-2.067968	0.000000	0.000000	0.000000	0.000000	0.000000	0.000000	0.000000	0.000000	0.000000	0.000000	0.906937	301.077037	22.459726	0.420470	0.000000	0.311409	0.000000	-1.336940	-0.000000	9.620731	163.568384	-2.185057	0.312343	0.000000	0.308437	0.000000	0.214732	-0.000000	0.591813	299.529657	21.690243	0.420877	0.000000	0.309062	0.000000	-1.030833	-0.000000	9.582435	163.519721	-1.517913	0.316886	0.000000	0.311698	0.000000	0.346303	0.000000	0.000000	0.000000	0.000000	0.000000	0.000000	0.000000	0.000000	0.000000	0.000000	0.000000	0.000000	0.000000	0.000000	0.000000	0.000000	0.000000	0.000000	0.000000
